
<svg width="47px" height="41px" viewBox="30 448 47 41" version="1.1" xmlns="http://www.w3.org/2000/svg" xmlns:xlink="http://www.w3.org/1999/xlink">
    <!-- Generator: Sketch 41.2 (35397) - http://www.bohemiancoding.com/sketch -->
    <desc>Created with Sketch.</desc>
    <defs></defs>
    <g id="Group" stroke="none" stroke-width="1" fill="none" fill-rule="evenodd" transform="translate(31.000000, 448.000000)">
        <g id="test-phonepaq-icon" transform="translate(10.500000, 20.000000) scale(-1, -1) translate(-10.500000, -20.000000) ">
            <path d="M20.2349182,24.6808511 L13.550833,24.6808511 C13.5377743,24.6808511 13.5247157,24.6800189 13.5119348,24.6780772 L12.4839133,24.6780772 C11.6559391,24.6780772 11.3400309,24.3649051 11.3400309,23.5432792 C11.3400309,21.7799179 11.339753,20.5699475 11.3408644,18.8065863 C11.3408644,18.2138062 11.6876133,17.8731726 12.2877556,17.8723404 L13.5480545,17.8723404 L13.550833,17.8723404 L20.2349182,17.8723404 C20.4255189,17.8723404 20.58,18.026846 20.58,18.2171348 L20.58,24.3360567 C20.58,24.5263454 20.4255189,24.6808511 20.2349182,24.6808511" id="path1464" fill="#606060"></path>
            <path d="M20.2349182,17.0212766 L13.550833,17.0212766 C13.5377743,17.0212766 13.5247157,17.0198897 13.5119348,17.0185027 L12.4839133,17.0185027 C11.6559391,17.0185027 11.3400309,16.7044985 11.3400309,15.8837047 C11.3400309,14.1197887 11.339753,12.9112052 11.3408644,11.146457 C11.3408644,10.5542317 11.6876133,10.212766 12.2877556,10.212766 L13.5480545,10.212766 L13.550833,10.212766 L20.2349182,10.212766 C20.4255189,10.212766 20.58,10.367549 20.58,10.5578378 L20.58,16.67565 C20.58,16.866771 20.4255189,17.0212766 20.2349182,17.0212766" id="path1468" fill="#606060"></path>
            <path d="M0.765353049,17.8723404 L7.44930984,17.8723404 C7.46264608,17.8723404 7.47542664,17.8723404 7.48820721,17.8742824 L8.51620904,17.8742824 C9.34444511,17.8742824 9.65951378,18.1877702 9.65951378,19.0094965 C9.66006946,20.7736282 9.6603473,21.9829142 9.65923594,23.746491 C9.65923594,24.3393436 9.31277154,24.6802962 8.71264074,24.6808511 L7.45208822,24.6808511 L7.44930984,24.6808511 L0.765353049,24.6808511 C0.574755952,24.6808511 0.42,24.5263266 0.42,24.3354597 L0.42,18.2166221 C0.42,18.0263101 0.574755952,17.8723404 0.765353049,17.8723404 L0.765353049,17.8723404 L0.765353049,17.8723404 Z" id="path1476" fill="#606060"></path>
            <path d="M0.765353049,25.5319149 L7.44930984,25.5319149 C7.46264608,25.5319149 7.47542664,25.5333018 7.48820721,25.5346888 L8.51620904,25.5346888 C9.34444511,25.5346888 9.65951378,25.848693 9.65951378,26.6694868 C9.66006946,28.4334028 9.6603473,29.6428184 9.65923594,31.4067345 C9.65923594,31.9989598 9.31277154,32.3404255 8.71264074,32.3404255 L7.45208822,32.3404255 L7.44930984,32.3404255 L0.765353049,32.3404255 C0.574755952,32.3404255 0.42,32.1856425 0.42,31.9956311 L0.42,25.8775415 C0.42,25.6864205 0.574755952,25.5319149 0.765353049,25.5319149 L0.765353049,25.5319149 L0.765353049,25.5319149 Z" id="path1480" fill="#606060"></path>
            <path d="M0.765633485,10.212766 L7.44964052,10.212766 C7.46269902,10.212766 7.47547968,10.2135982 7.48826034,10.2149853 L8.5162699,10.2149853 C9.3445122,10.2149853 9.65986108,10.5287505 9.65986108,11.3499221 C9.65986108,13.1140537 9.66041676,14.3233398 9.6593054,16.0877488 C9.6593054,16.6797691 9.31283839,17.0207218 8.71270308,17.0212766 L7.45214109,17.0212766 L7.44936268,17.0212766 L0.765355645,17.0212766 C0.574757115,17.0212766 0.42,16.8673069 0.42,16.67644 L0.42,10.5576025 C0.42,10.3672905 0.574757115,10.212766 0.765633485,10.212766 L0.765633485,10.212766 L0.765633485,10.212766 Z" id="path1484" fill="#606060"></path>
            <path d="M21,34.2039972 L21,37.7628143 C21,38.9985036 20.0114092,40 18.7919706,40 L2.20802938,40 C0.988590756,40 0,38.9985036 0,37.7628143 L0,33.9026619 C0,33.510013 0.314334755,33.1914894 0.701819926,33.1914894 L20.0008077,33.1914894 C20.5526163,33.1914894 21,33.644835 21,34.2039972 Z M17.4208689,34.893617 L13.6591311,34.893617 C12.8455712,34.893617 12.18,35.4681014 12.18,36.1703216 C12.18,36.8723241 12.8455712,37.4468085 13.6591311,37.4468085 L17.4208689,37.4468085 C18.2344288,37.4468085 18.9,36.8723241 18.9,36.1703216 C18.9,35.4681014 18.2344288,34.893617 17.4208689,34.893617 Z" id="Combined-Shape" fill="#606060"></path>
            <path d="M0,8.7149999 L0,2.06320551 C0,0.923612647 0.988590756,0 2.20802938,0 L18.7927657,0 C20.0116743,0 21,0.923364964 21,2.06271014 L21,8.7149999 C21,9.07215984 20.6901709,9.36170213 20.3079865,9.36170213 L0.69201353,9.36170213 C0.309829114,9.36170213 0,9.07215984 0,8.7149999 L0,8.7149999 L0,8.7149999 Z" id="path1448" fill="#606060"></path>
            <path d="M20.2349182,32.3404255 L13.550833,32.3404255 C13.5377743,32.3404255 13.5247157,32.3398707 13.5119348,32.3384836 L12.4839133,32.3384836 C11.6559391,32.3376513 11.3400309,32.0244409 11.3400309,31.2032694 C11.3400309,29.4391378 11.339753,28.2298517 11.3408644,26.4654427 C11.3408644,25.8725901 11.6876133,25.5319149 12.2877556,25.5319149 L13.5480545,25.5319149 L13.550833,25.5319149 L20.2349182,25.5319149 C20.4255189,25.5319149 20.58,25.6858846 20.58,25.8767514 L20.58,31.995589 C20.58,32.185901 20.4255189,32.3404255 20.2349182,32.3404255" id="path1472" fill="#01CF9F"></path>
        </g>
        <path d="M44.0596307,18.5449292 L32.3144794,18.5272434 L32.3086047,18.5272434 C31.3010981,18.5272434 30.3535972,18.9226467 29.6410832,19.637236 C28.9264711,20.3530885 28.5324483,21.3072779 28.5324483,22.3208409 C28.5324483,24.4086038 30.224774,26.1068587 32.3052477,26.1068587 L34.1973123,26.1068587 C34.7768069,26.1068587 35.2463612,25.6356593 35.2463612,25.0541344 C35.2463612,24.4726094 34.7768069,24.00141 34.1973123,24.00141 L32.3052477,24.00141 C31.3816651,24.00141 30.6305461,23.2463961 30.6305461,22.3199987 C30.6305461,21.8698538 30.8055274,21.4453953 31.1231794,21.1270515 C31.4404118,20.8091287 31.8612902,20.6326921 32.3090243,20.6326921 L32.311542,20.6326921 L44.057113,20.6326921 L44.0583719,20.6326921 C44.6370272,20.6326921 45.1065815,20.1711778 45.1074208,19.5896529 C45.10826,19.0093912 44.6391253,18.5457714 44.0596307,18.5449292 Z M44.0583719,15.5796153 L29.1618776,15.5796153 C27.3109358,15.5796153 25.8049212,17.0909063 25.8049212,18.9483332 C25.8049212,19.5298581 26.2744755,20.0010575 26.8539701,20.0010575 C27.4334647,20.0010575 27.903019,19.5298581 27.903019,18.9483332 C27.903019,18.2518508 28.4678269,17.685064 29.1618776,17.685064 L44.0583719,17.685064 C44.6378665,17.685064 45.1074208,17.2138646 45.1074208,16.6323396 C45.1074208,16.0508147 44.6378665,15.5796153 44.0583719,15.5796153 Z M33.7776928,14.7374358 L44.0583719,14.7374358 C44.6378665,14.7374358 45.1074208,14.2662364 45.1074208,13.6847115 C45.1074208,13.1031865 44.6378665,12.6319871 44.0583719,12.6319871 L33.7776928,12.6319871 C33.083642,12.6319871 32.5188341,12.0652003 32.5188341,11.3687179 C32.5188341,10.6722355 33.083642,10.1054487 33.7776928,10.1054487 L35.0365514,10.1054487 C35.616046,10.1054487 36.0856003,9.63424927 36.0856003,9.05272434 C36.0856003,8.47119942 35.616046,8 35.0365514,8 L33.7776928,8 C31.9267509,8 30.4207363,9.51129107 30.4207363,11.3687179 C30.4207363,13.2261447 31.9267509,14.7374358 33.7776928,14.7374358 Z" id="wind" fill="#606060"></path>
    </g>
</svg>